<svg id="Layer_1" data-name="Layer 1" xmlns="http://www.w3.org/2000/svg" viewBox="0 0 277.88 71.54"><defs><style>.cls-1,.cls-2{fill:#ffffff;}.cls-1{fill-rule:evenodd;}</style></defs><path class="cls-1" d="M180.16,445.57l6.69-24.29h-6.52l2.38-8.71H203l-2.38,8.71h-6.51l-6.69,24.29Zm16.24,0,9.06-33h18.1l-2.18,7.94H210.55l-1.3,4.72h9.16l-2,7.24h-9.15l-1.42,5.08h11.28l-2.21,8Zm19.79,0,12.43-17.14-2.71-15.86h8.53L234.19,423l6.54-10.45h7.67l-11.69,15.86,2.88,17.14H231.1L231,434.85l-6.76,10.72Zm25.54,0,9.06-33h7.27L255,423.8h6.77l3.09-11.23h7.26l-9.06,33h-7.27l3.51-12.84H252.5L249,445.57Zm28-8.62a26.52,26.52,0,0,1,.21-3.06,35.51,35.51,0,0,1,2.24-8.7,28.32,28.32,0,0,1,4-7.11,18.43,18.43,0,0,1,5.29-4.7,11.8,11.8,0,0,1,6-1.68,7.84,7.84,0,0,1,4.95,1.5,7.71,7.71,0,0,1,2.67,4.43,19.19,19.19,0,0,1,.21,7,34.24,34.24,0,0,1-2.21,8.57,27.62,27.62,0,0,1-4,6.94,18.35,18.35,0,0,1-5.28,4.61,11.9,11.9,0,0,1-6,1.65,8.14,8.14,0,0,1-4.35-1.13,7.15,7.15,0,0,1-2.8-3.29,12.32,12.32,0,0,1-1-5.07Zm15.61-17.05c-1.86,0-3.47,1.12-4.81,3.35a23.23,23.23,0,0,0-1.9,4.49,28.17,28.17,0,0,0-1.19,5.08,7.1,7.1,0,0,0,.33,4.06,2.54,2.54,0,0,0,2.47,1.31q2.75,0,4.74-3.58a23.19,23.19,0,0,0,1.77-4.39,28.92,28.92,0,0,0,1.14-5,7.13,7.13,0,0,0-.32-3.95,2.26,2.26,0,0,0-2.23-1.36Z" transform="translate(-158 -385.89)"/><path class="cls-1" d="M336.18,446l7-25.31h-6.79l2.48-9.07H360l-2.48,9.07h-6.79l-7,25.31Zm16.92,0,9.44-34.38h9.71a14.89,14.89,0,0,1,5.37.76,5.18,5.18,0,0,1,2.8,2.48,9.85,9.85,0,0,1,.61,5.69,23.49,23.49,0,0,1-1.57,6.07,17.25,17.25,0,0,1-2.86,4.74,12.4,12.4,0,0,1-3.89,3.07,10.35,10.35,0,0,1-4.63,1.06h-4.51L360.67,446Zm12.76-18.91h4.07a2.91,2.91,0,0,0,2.22-1.32,6.34,6.34,0,0,0,1.27-3.12,2.68,2.68,0,0,0-.32-1.92,1.76,1.76,0,0,0-1.54-.66h-3.78l-1.92,7Zm13.93,9.93a26.73,26.73,0,0,1,.22-3.19,37,37,0,0,1,2.32-9.06,29.62,29.62,0,0,1,4.19-7.4,19.32,19.32,0,0,1,5.52-4.91,12.28,12.28,0,0,1,6.22-1.75,8.21,8.21,0,0,1,5.16,1.57,8.08,8.08,0,0,1,2.78,4.62,20.07,20.07,0,0,1,.22,7.33,36,36,0,0,1-2.3,8.93,28.81,28.81,0,0,1-4.16,7.23,19.15,19.15,0,0,1-5.49,4.81,12.57,12.57,0,0,1-6.22,1.71,8.45,8.45,0,0,1-4.53-1.18,7.51,7.51,0,0,1-2.92-3.42,12.87,12.87,0,0,1-1-5.29Zm16.26-17.76q-2.91,0-5,3.49a23.4,23.4,0,0,0-2,4.67,29.28,29.28,0,0,0-1.24,5.3,7.39,7.39,0,0,0,.34,4.23,2.65,2.65,0,0,0,2.58,1.36q2.85,0,4.94-3.73a24,24,0,0,0,1.84-4.57,30.87,30.87,0,0,0,1.19-5.22,7.57,7.57,0,0,0-.33-4.11,2.37,2.37,0,0,0-2.33-1.42Zm25.52-16H424a3.62,3.62,0,0,0,0,.57c0,.41,0,.66,0,.73a2,2,0,0,0,.25.84,2,2,0,0,0,1.92.82,3.39,3.39,0,0,0,2.21-.72,5.12,5.12,0,0,0,1.45-2.24h2.36a17,17,0,0,1-1.72,3.73,6.31,6.31,0,0,1-5.53,3.19,3.46,3.46,0,0,1-3-1.33,3.54,3.54,0,0,1-.63-1.73,13.81,13.81,0,0,1,.15-2.9q.07-.63.15-1ZM404.24,446l9.44-34.38h7.57l-7.05,25.7.1.08L426,411.65h9.9L426.44,446h-7.58l6.41-23.35-.1-.14L414.3,446Z" transform="translate(-158 -385.89)"/><path class="cls-1" d="M225.12,395.5h6.62l-.52,2.23h-3.57l-.5,2.23h.93a4.51,4.51,0,0,1,2.1.39,2.15,2.15,0,0,1,.86.88,2.72,2.72,0,0,1,.3,1.28,4.94,4.94,0,0,1-.32,1.68,5.34,5.34,0,0,1-.89,1.52,3.91,3.91,0,0,1-1,.8,3.27,3.27,0,0,1-1,.4,7.61,7.61,0,0,1-1.45.11h-4.25l2.66-11.51ZM226,405a6.28,6.28,0,0,0,1.14-.07,1.78,1.78,0,0,0,.65-.28,1.74,1.74,0,0,0,.56-.7,2.16,2.16,0,0,0,.22-.95.94.94,0,0,0-.13-.51,1,1,0,0,0-.56-.35,5.07,5.07,0,0,0-1.18-.13l-.7,3Zm7.81-9.48h4.49l-1,4.33h1.17a3.51,3.51,0,0,1,2.3.63,2.47,2.47,0,0,1,.74,2,4.76,4.76,0,0,1-.31,1.69,4.68,4.68,0,0,1-.84,1.46,4.4,4.4,0,0,1-3.54,1.44h-4.25l2.16-9.28h-1.46l.52-2.23ZM236.1,405h.13a3,3,0,0,0,1.67-.37,1.58,1.58,0,0,0,.55-.69,2.3,2.3,0,0,0,.21-.95.93.93,0,0,0-.13-.52.87.87,0,0,0-.54-.36,4.85,4.85,0,0,0-1.2-.1l-.69,3Zm5.34.3h.12a1.57,1.57,0,0,0,.76-.15,1.21,1.21,0,0,0,.45-.55,7,7,0,0,0,.37-1.2l.42-1.76L245,395.5h7.7L250,407H247l2.08-9h-1.94l-1.18,5.09a9.85,9.85,0,0,1-.8,2.4,3.19,3.19,0,0,1-1.09,1.3,3,3,0,0,1-1.56.4,4.08,4.08,0,0,1-.82-.06,2.17,2.17,0,0,1-.58-.28l.36-1.55Zm10.7,1.73,2.66-11.51h6.45l-.52,2.23h-3.4L255.19,407Zm6.59,0,5.63-11.65H268L268,407h-2.89l.14-2.3h-2.4L262,407Zm4.82-4.48h1.81l.35-5.16-2.16,5.16Zm5.62,4.48,2.66-11.51h3a12.87,12.87,0,0,1,2.73.23,2.43,2.43,0,0,1,1.41.75,2.22,2.22,0,0,1,.43,1.45,4.89,4.89,0,0,1-.42,2,4.47,4.47,0,0,1-1.15,1.6,4.31,4.31,0,0,1-2.21,1,13.37,13.37,0,0,1-1.89.1h-.49l-1,4.41Zm4.56-6.55H274a2.87,2.87,0,0,0,1.44-.29,1.64,1.64,0,0,0,.59-.67,2,2,0,0,0,.24-.93,1,1,0,0,0-.17-.56.75.75,0,0,0-.26-.27,1.73,1.73,0,0,0-.64-.12c-.36,0-.63,0-.82,0l-.66,2.87Zm5.1,6.55,2.66-11.51h3l-1,4.42-1,3.5-.39,1.27.07,0,4.1-9.22h4.11L287.74,407h-3.07l1.08-4.67c.15-.64.52-1.83,1.11-3.55.05-.13.11-.31.18-.53s.12-.38.15-.49l-.07,0-4,9.27Zm19.06,0h-3l1.1-4.72h-.68l-3,4.73h-3.29l4.09-5.48a3.56,3.56,0,0,1-1.27-.68,1.8,1.8,0,0,1-.39-1.29,4.17,4.17,0,0,1,.53-2.09,3.28,3.28,0,0,1,1.82-1.59,10.55,10.55,0,0,1,3.28-.38h3.44L297.89,407Zm-1.52-6.41.71-3.11a9.27,9.27,0,0,0-1.27.08,1.45,1.45,0,0,0-.63.32,2,2,0,0,0-.48.77,2.9,2.9,0,0,0-.19,1,.75.75,0,0,0,.21.58,1.06,1.06,0,0,0,.53.26,7,7,0,0,0,1.12.06Z" transform="translate(-158 -385.89)"/><path class="cls-1" d="M158.61,455.07H261.44q4,1.23,8.28,2.36h-57c-1-.49-2-1-3-1.53H164.23l-.4,1.53H158l.61-2.36Z" transform="translate(-158 -385.89)"/><path class="cls-1" d="M159.51,451.62h10.3l-.05.18h82q3,1.13,6.27,2.18H206.34c-.72-.44-1.44-.89-2.14-1.35H175.37l0-.18H165.13l-.4,1.53H158.9l.61-2.36Z" transform="translate(-158 -385.89)"/><polygon class="cls-1" points="2.33 62.08 12.68 62.08 12.46 62.91 7.95 62.91 7.55 64.44 1.72 64.44 2.33 62.08 2.33 62.08"/><polygon class="cls-1" points="3.23 58.63 13.6 58.63 13.38 59.46 8.85 59.46 8.45 60.99 2.62 60.99 3.23 58.63 3.23 58.63"/><polygon class="cls-1" points="4.13 55.18 14.52 55.18 14.3 56.01 9.74 56.01 9.35 57.54 3.52 57.54 4.13 55.18 4.13 55.18"/><polygon class="cls-1" points="5.03 51.73 15.44 51.73 15.22 52.56 10.64 52.56 10.24 54.09 4.41 54.09 5.03 51.73 5.03 51.73"/><polygon class="cls-1" points="5.93 48.29 16.36 48.29 16.14 49.11 11.54 49.11 11.14 50.64 5.31 50.64 5.93 48.29 5.93 48.29"/><polygon class="cls-1" points="6.82 44.84 17.29 44.84 17.06 45.66 12.44 45.66 12.04 47.2 6.21 47.2 6.82 44.84 6.82 44.84"/><polygon class="cls-1" points="7.72 41.39 18 41.39 17.75 42.21 13.34 42.21 12.94 43.75 7.11 43.75 7.72 41.39 7.72 41.39"/><polygon class="cls-1" points="8.62 37.94 18.86 37.94 18.56 38.76 14.23 38.76 13.84 40.3 8.01 40.3 8.62 37.94 8.62 37.94"/><polygon class="cls-1" points="9.52 34.49 18.67 34.49 18.48 35.31 15.13 35.31 14.73 36.85 8.9 36.85 9.52 34.49 9.52 34.49"/><polygon class="cls-1" points="10.42 31.04 19.49 31.04 19.29 31.87 16.03 31.87 15.63 33.4 9.8 33.4 10.42 31.04 10.42 31.04"/><polygon class="cls-1" points="11.31 27.59 20.31 27.59 20.11 28.42 16.93 28.42 16.53 29.95 10.7 29.95 11.31 27.59 11.31 27.59"/><polygon class="cls-1" points="12.21 24.14 21.12 24.14 20.93 24.97 17.83 24.97 17.43 26.5 11.6 26.5 12.21 24.14 12.21 24.14"/><polygon class="cls-1" points="13.11 20.69 21.94 20.69 21.74 21.52 18.73 21.52 18.33 23.05 12.5 23.05 13.11 20.69 13.11 20.69"/><path class="cls-1" d="M172,403.13h39c-.5.78-1,1.57-1.36,2.36H182.85q.3-.76.63-1.53h-5.86l-.4,1.53h-5.83l.62-2.36Z" transform="translate(-158 -385.89)"/><path class="cls-1" d="M172.91,399.69h40.6c-.65.77-1.24,1.56-1.79,2.35H184.37q.39-.77.81-1.53h-6.66l-.4,1.53h-5.83l.62-2.35Z" transform="translate(-158 -385.89)"/><path class="cls-1" d="M173.8,396.24h42.91c-.8.77-1.55,1.56-2.26,2.35H186.3q.48-.76,1-1.53h-7.87l-.4,1.53h-5.83l.61-2.35Z" transform="translate(-158 -385.89)"/><path class="cls-1" d="M174.7,392.79h45.93c-1,.77-1.88,1.56-2.76,2.36H188.66c.39-.52.79-1,1.2-1.54h-9.54l-.4,1.54h-5.83l.61-2.36Z" transform="translate(-158 -385.89)"/><path class="cls-1" d="M175.6,389.34h49.74c-1.15.77-2.26,1.56-3.31,2.36H191.5c.47-.52.95-1,1.44-1.54H181.21l-.39,1.54H175l.61-2.36Z" transform="translate(-158 -385.89)"/><path class="cls-1" d="M176.5,385.89h54.41c-1.35.77-2.66,1.56-3.91,2.36H194.91q.84-.78,1.71-1.53H182.11l-.4,1.53h-5.83l.62-2.36Z" transform="translate(-158 -385.89)"/><path class="cls-2" d="M332.86,400.37H311.6l3.81-3.21h15.36l2.09,3.21Zm3.08,6.47H305l.32-1.17,3.37-2.88h25.66l1.87,2.88-.31,1.17Zm-1.73,6.41H321.8l1.08-4h-6.15l-1.07,4H303.31l1.09-4.05h30.9l-1.09,4.05Zm-5.2,19.3H316.6l1.08-4h12.41l-1.08,4Zm-15.08-12.88H301.58l1.09-4.06H315l-1.09,4.06Zm-1.73,6.41H299.85l1.08-4h12.35l-1.08,4ZM327.81,437l-2.41,2H298.23l-1.32-2,.55-2h30.9l-.55,2Zm-17.35-4.45H298.11l1.07-4h12.35l-1.07,4Zm12.08,8.84-4.77,4.05H302.41l-2.64-4.05Z" transform="translate(-158 -385.89)"/></svg>